<svg xmlns="http://www.w3.org/2000/svg" viewBox="0 0 352.3 86.56"><defs><style>.cls-1{fill:#db2089;}</style></defs><title>Middel 1</title><g id="Laag_2" data-name="Laag 2"><g id="Capa_1" data-name="Capa 1"><path class="cls-1" d="M38.63,81A38.63,38.63,0,1,0,0,42.35,38.71,38.71,0,0,0,38.63,81ZM4.53,42.35a33.94,33.94,0,0,1,7.58-21.42c2.61,0,3.31.3,3.5.47,0,.15.09,1.12-1.47,3.66-3.7,6-4.81,9.76-3.71,12.55,1.49,3.77,6.15,3.77,8.68,5,1.54.72,9.27,4.29,10.17,5.61V52c0,2.83,2.67,4.37,4.83,5.6.87.5,2.68,1.53,2.81,2,0,9,.87,14,2,16.82h-.28A34.14,34.14,0,0,1,4.53,42.35ZM44.52,74a3.4,3.4,0,0,1-.87,1.8c-.58-.8-2.2-4.12-2.2-16.17,0-3.06-2.83-4.68-5.1-6a10.86,10.86,0,0,1-2.56-1.76V48.17a4.33,4.33,0,0,0-.3-1.65,12.52,12.52,0,0,0,7-2.67A3.73,3.73,0,0,1,43,42.79h0a6.3,6.3,0,0,1,1.05,1.47c2.56,4.29,5.07,5.82,10,6.89a8.79,8.79,0,0,1,1.93.56A1.35,1.35,0,0,1,56,52c0,4.67-3.59,8-6.76,11-2.55,2.39-4.74,4.46-4.74,7.08C44.52,70.48,44.51,73.8,44.52,74ZM72.73,42.35A34.17,34.17,0,0,1,49,74.85a5.35,5.35,0,0,0,.05-1c0-.3,0-3.74,0-3.77s0-.33.72-1.16a35.33,35.33,0,0,1,2.61-2.63c3.46-3.25,8.19-7.71,8.19-14.33a4.56,4.56,0,0,0-2.1-4.09A10.28,10.28,0,0,0,55,46.73c-3.66-.8-5.14-1.59-7.06-4.8-.93-1.55-2.2-3.67-5-3.67a8.08,8.08,0,0,0-5.17,1.92c-1.36,1-2.64,1.9-6.29,1.9A6.84,6.84,0,0,1,25,38.18a3.36,3.36,0,0,1,.5-3.7c.62-.62,1-.65,3.12.43,2,1,5.28,2.64,8.34-.43s5.86-3.17,9.26-3.16a21.8,21.8,0,0,0,6.57-.59,5.44,5.44,0,0,0,3.94-5.49c0-2.45-1.09-4.63-2.15-6.74-.86-1.72-1.67-3.35-1.67-4.72,0-1.07.23-1.66,1.4-1.71A34.14,34.14,0,0,1,72.73,42.35ZM49.41,10a6.6,6.6,0,0,0-1,3.78c0,2.44,1.09,4.63,2.15,6.74.86,1.72,1.67,3.34,1.67,4.72,0,.8-.19,1-.84,1.2a20.41,20.41,0,0,1-5.13.36c-3.73,0-8,0-12.47,4.48-.62.62-1,.66-3.12-.42-2-1-5.28-2.64-8.34.42a7.55,7.55,0,0,0-2,6.88C18.08,37.3,15,36.9,14.64,36c-.17-.44-.44-2.35,3.35-8.52,1.41-2.28,3.1-5.63,1.54-8.31a5.26,5.26,0,0,0-3.42-2.35A34,34,0,0,1,49.41,10Z"/><path d="M143.47,15.68a48.5,48.5,0,0,0,.19,4.86h-1.47q-1.55-7.86-4.2-11.07a8.94,8.94,0,0,0-7.26-3.2h-1.47V42.82a10.3,10.3,0,0,0,.54,3.9,2.88,2.88,0,0,0,1.92,1.63,17.66,17.66,0,0,0,4.38.48v1.28Q128,49.93,124,49.92c-2.69,0-6.6.07-11.72.19V48.83a17.69,17.69,0,0,0,4.39-.48,2.9,2.9,0,0,0,1.92-1.63,10.3,10.3,0,0,0,.54-3.9V6.27h-1.41a9.6,9.6,0,0,0-5.21,1.35,10.57,10.57,0,0,0-3.68,4.44,35.48,35.48,0,0,0-2.63,8.48h-1.47a48.5,48.5,0,0,0,.19-4.86q0-4.8-.44-10.88Q110.25,5,124.2,5t19.71-.19Q143.48,10.88,143.47,15.68Z"/><path d="M173.48,17.86A6.21,6.21,0,0,1,175,22a5.53,5.53,0,0,1-1.37,3.87,4.68,4.68,0,0,1-3.62,1.5,5.07,5.07,0,0,1-3.46-1.12,3.75,3.75,0,0,1-1.27-3,5.81,5.81,0,0,1,2.81-5,3.59,3.59,0,0,0-.77-.06,3.16,3.16,0,0,0-1,.13,6.13,6.13,0,0,0-4.13,2.94,9.41,9.41,0,0,0-1.69,5.25v17c0,2,.47,3.33,1.44,4.1a7.35,7.35,0,0,0,4.57,1.15v1.34a14.57,14.57,0,0,1-1.47-.06q-6.53-.19-8.7-.19c-1.16,0-3.78.06-7.88.19a11.2,11.2,0,0,1-1.28.06V48.77a4.18,4.18,0,0,0,3.2-1,5.47,5.47,0,0,0,.9-3.62V24a7.92,7.92,0,0,0-.9-4.29,3.56,3.56,0,0,0-3.2-1.34V17c1.37.12,2.69.19,4,.19a40.13,40.13,0,0,0,9.35-.9v5.95A10.82,10.82,0,0,1,164,17.83a8.45,8.45,0,0,1,5.18-1.7A5.37,5.37,0,0,1,173.48,17.86Z"/><path d="M179.34,48.45a7.72,7.72,0,0,1-2-5.57,7.38,7.38,0,0,1,1.51-4.77,10.17,10.17,0,0,1,3.64-2.91A53.67,53.67,0,0,1,187.94,33a29.36,29.36,0,0,0,5.16-2.21,3,3,0,0,0,1.63-2.72v-5a6.4,6.4,0,0,0-1.25-4.19,4.74,4.74,0,0,0-3.87-1.5,6.49,6.49,0,0,0-4.67,1.53,6,6,0,0,1,2.78,1.92,4.8,4.8,0,0,1,1,3,4.35,4.35,0,0,1-1.47,3.46,5.27,5.27,0,0,1-3.58,1.28,4.31,4.31,0,0,1-3.46-1.41A5.19,5.19,0,0,1,179,23.68a5.18,5.18,0,0,1,.86-3,8.66,8.66,0,0,1,2.66-2.34,15,15,0,0,1,4.25-1.6,25.21,25.21,0,0,1,5.54-.57,20.35,20.35,0,0,1,5.44.64,8.67,8.67,0,0,1,3.84,2.17,7.17,7.17,0,0,1,1.89,3.46,25.61,25.61,0,0,1,.47,5.57V45.38a5.79,5.79,0,0,0,.29,2.17,1.11,1.11,0,0,0,1.12.64,4,4,0,0,0,2.31-1.09l.64,1.09a10.72,10.72,0,0,1-7,2.37q-3.52,0-4.93-1.41a5.29,5.29,0,0,1-1.47-3.77,10.39,10.39,0,0,1-9.41,5.18Q181.36,50.56,179.34,48.45Zm15.39-4.61V30.72a9.76,9.76,0,0,1-3.26,2.82,15.18,15.18,0,0,0-3.78,3.2,7.23,7.23,0,0,0-1.28,4.61,5.77,5.77,0,0,0,1.09,3.87,3.62,3.62,0,0,0,2.88,1.24A5.3,5.3,0,0,0,194.73,43.84Z"/><path d="M240.43,17V18.3a4.86,4.86,0,0,0-2.4,1.64,12.88,12.88,0,0,0-2,3.87l-9.34,26.43c-.47,0-1.18-.06-2.12-.06s-1.57,0-2,.06L211.11,22a6.93,6.93,0,0,0-1.82-2.88,3.1,3.1,0,0,0-1.89-.7V17q4.48.31,9.09.31,4,0,8.32-.31v1.34a11.25,11.25,0,0,0-3.1.29c-.62.19-.93.71-.93,1.57a6.16,6.16,0,0,0,.32,1.6l7.3,19.39L233,28.55a16.68,16.68,0,0,0,1-5.19q0-4.66-4.68-5.06V17c2,.12,4,.19,6.15.19A49.21,49.21,0,0,0,240.43,17Z"/><path d="M268.33,40.64l1.15.39a15.29,15.29,0,0,1-4.57,7.07A12,12,0,0,1,256.68,51q-6.78,0-10.78-4.32t-4-12.77q0-8.64,4.29-13.22t11.39-4.57q12,0,12,14.21h-18c0,.64-.07,1.64-.07,3a18.16,18.16,0,0,0,1.19,7,8.87,8.87,0,0,0,3.07,4.1,7.12,7.12,0,0,0,4.06,1.28Q265.13,45.76,268.33,40.64ZM253.39,20.32c-1,1.9-1.63,4.83-1.89,8.8h10.05a24.71,24.71,0,0,0-1-8.35q-1.12-3.3-3.36-3.3T253.39,20.32Z"/><path d="M286.38,44.16a5.54,5.54,0,0,0,.89,3.62,4.21,4.21,0,0,0,3.2,1v1.34q-6.64-.26-8.57-.25c-1.45,0-4.4.08-8.83.25V48.77a4.22,4.22,0,0,0,3.17-1,5.4,5.4,0,0,0,.92-3.62V7.68a7.81,7.81,0,0,0-.92-4.29,3.6,3.6,0,0,0-3.17-1.34V.7c1.36.13,2.69.2,4,.2a41.06,41.06,0,0,0,9.34-.9Z"/><path d="M319.85,40.64,321,41a15.21,15.21,0,0,1-4.57,7.07A12,12,0,0,1,308.2,51q-6.78,0-10.78-4.32t-4-12.77q0-8.64,4.29-13.22t11.39-4.57q12,0,12,14.21h-18c0,.64-.07,1.64-.07,3a18.16,18.16,0,0,0,1.19,7,8.93,8.93,0,0,0,3.07,4.1,7.12,7.12,0,0,0,4.06,1.28Q316.65,45.76,319.85,40.64ZM304.91,20.32c-1,1.9-1.63,4.83-1.89,8.8h10.05a24.71,24.71,0,0,0-1-8.35q-1.12-3.3-3.36-3.3T304.91,20.32Z"/><path d="M350.83,17.86A6.21,6.21,0,0,1,352.3,22a5.53,5.53,0,0,1-1.37,3.87,4.69,4.69,0,0,1-3.62,1.5,5.07,5.07,0,0,1-3.46-1.12,3.76,3.76,0,0,1-1.28-3,5.82,5.82,0,0,1,2.82-5,3.66,3.66,0,0,0-.77-.06,3.12,3.12,0,0,0-1,.13,6.13,6.13,0,0,0-4.13,2.94,9.42,9.42,0,0,0-1.7,5.25v17c0,2,.48,3.33,1.44,4.1a7.39,7.39,0,0,0,4.58,1.15v1.34a14.57,14.57,0,0,1-1.47-.06q-6.54-.19-8.71-.19-1.73,0-7.87.19a11.32,11.32,0,0,1-1.28.06V48.77a4.19,4.19,0,0,0,3.2-1,5.47,5.47,0,0,0,.9-3.62V24a7.92,7.92,0,0,0-.9-4.29,3.57,3.57,0,0,0-3.2-1.34V17c1.37.12,2.69.19,4,.19a40,40,0,0,0,9.34-.9v5.95a10.9,10.9,0,0,1,3.52-4.44,8.5,8.5,0,0,1,5.19-1.7A5.37,5.37,0,0,1,350.83,17.86Z"/><path d="M232.75,69a7.78,7.78,0,0,0-3.4-1,3.45,3.45,0,0,0-2.25.65,2.19,2.19,0,0,0-.77,1.76,2.44,2.44,0,0,0,.76,1.83,6,6,0,0,0,1.84,1.17c.72.3,1.44.62,2.15,1a5,5,0,0,1,1.83,1.43,3.82,3.82,0,0,1-.5,5.12,4.94,4.94,0,0,1-3.24,1A4.78,4.78,0,0,1,226,81a5.33,5.33,0,0,1-1.66-3l1.4-.34q.83,3.18,3.36,3.18a3.22,3.22,0,0,0,2.23-.7,2.48,2.48,0,0,0,.79-2,2.51,2.51,0,0,0-1.46-2.24,13.46,13.46,0,0,0-1.42-.69c-.52-.22-1-.46-1.57-.72a10.19,10.19,0,0,1-1.44-.87,3.62,3.62,0,0,1-1.05-1.26,4,4,0,0,1-.4-1.8A3.29,3.29,0,0,1,226,67.83a5,5,0,0,1,3.18-1,10,10,0,0,1,4.11,1Z"/><path d="M242.49,79.76v-.28A4.29,4.29,0,0,1,238.41,82a2.86,2.86,0,0,1-2.14-.82,3.07,3.07,0,0,1-.8-2.24,3.23,3.23,0,0,1,1.6-2.92q1.6-1,5.42-1v-.84a3.39,3.39,0,0,0-.62-2.36,2.68,2.68,0,0,0-2-.64,6.54,6.54,0,0,0-3.11,1l-.52-1.2a9.31,9.31,0,0,1,3.92-1c1.94,0,3.14.68,3.62,2a6.1,6.1,0,0,1,.3,2v5.48c0,.73.28,1.1.84,1.1a4.1,4.1,0,0,0,.82-.12l.18,1.2a4.86,4.86,0,0,1-1.52.26C243.13,82,242.49,81.27,242.49,79.76Zm0-3.68q-5.52,0-5.52,2.76a1.77,1.77,0,0,0,1.94,1.94,3.23,3.23,0,0,0,2.48-1.16,5,5,0,0,0,1.1-3.3Z"/><path d="M251,76.14v4.42l2,.14v1h-5v-1l1.4-.14V71.5l-1.4-.16v-1h2.12a.55.55,0,0,1,.62.62V73.4a6.15,6.15,0,0,1,1.63-2.35A4.13,4.13,0,0,1,255,70V71.4a3.88,3.88,0,0,0-2.85,1.36A4.86,4.86,0,0,0,251,76.14Z"/><path d="M263.09,79.76v-.28A4.29,4.29,0,0,1,259,82a2.86,2.86,0,0,1-2.15-.82,3.07,3.07,0,0,1-.8-2.24,3.23,3.23,0,0,1,1.6-2.92q1.6-1,5.42-1v-.84a3.45,3.45,0,0,0-.61-2.36,2.72,2.72,0,0,0-2-.64,6.48,6.48,0,0,0-3.1,1l-.53-1.2a9.35,9.35,0,0,1,3.92-1c1.94,0,3.15.68,3.62,2a6.1,6.1,0,0,1,.3,2v5.48c0,.73.28,1.1.85,1.1a4,4,0,0,0,.81-.12l.19,1.2A5,5,0,0,1,265,82C263.73,82,263.09,81.27,263.09,79.76Zm0-3.68q-5.52,0-5.52,2.76a1.92,1.92,0,0,0,.51,1.43,2,2,0,0,0,1.44.51A3.21,3.21,0,0,0,262,79.62a5,5,0,0,0,1.1-3.3Z"/><path d="M277.1,79.76V73.6a2.94,2.94,0,0,0-.45-1.81,1.9,1.9,0,0,0-1.55-.55,5.81,5.81,0,0,0-3.7,1.48v7.84l1.38.14v1h-4.37v-1l1.41-.14v-13l-1.41-.16v-1h2.12c.42,0,.62.2.62.6v4.74A6.77,6.77,0,0,1,275.4,70a3.19,3.19,0,0,1,2.5.88,4,4,0,0,1,.78,2.7v6c0,.73.28,1.1.85,1.1a4,4,0,0,0,.84-.12l.19,1.2a5.68,5.68,0,0,1-1.69.26C277.69,82,277.1,81.27,277.1,79.76Z"/><path d="M285.05,67.4a4.79,4.79,0,0,1-2.3,3.8l-.47-.58a2.55,2.55,0,0,0,1-1.78,2.87,2.87,0,0,0-.13-.69,2.91,2.91,0,0,1-.12-.78.94.94,0,0,1,.29-.65,1,1,0,0,1,.75-.3.95.95,0,0,1,1,1Z"/><path d="M294.33,72a6.78,6.78,0,0,0-2.85-.74,3.28,3.28,0,0,0-1.94.46,1.49,1.49,0,0,0-.63,1.27,1.68,1.68,0,0,0,.64,1.34,5.84,5.84,0,0,0,1.56.89c.62.24,1.23.5,1.83.76a4.31,4.31,0,0,1,1.55,1.14,2.66,2.66,0,0,1,.64,1.82,2.71,2.71,0,0,1-1.06,2.28,5.26,5.26,0,0,1-5.69,0,4.09,4.09,0,0,1-1.44-2.41l1.38-.32q.69,2.4,2.79,2.4a3,3,0,0,0,1.83-.5,1.61,1.61,0,0,0,.63-1.33,1.68,1.68,0,0,0-.63-1.35,5.74,5.74,0,0,0-1.57-.88c-.61-.24-1.22-.49-1.84-.76A4.14,4.14,0,0,1,288,74.86a2.76,2.76,0,0,1-.65-1.84,2.59,2.59,0,0,1,1.08-2.21,4.74,4.74,0,0,1,2.83-.79,9,9,0,0,1,3.59.8Z"/><path d="M303.35,67.14h5.24a5.06,5.06,0,0,1,3.38,1,3.85,3.85,0,0,1,.54,5,2.94,2.94,0,0,1-1.86,1.12A3.61,3.61,0,0,1,313,75.39a3.42,3.42,0,0,1,.84,2.35c0,2.67-1.5,4-4.52,4h-5.94v-1l1.26-.14V68.34l-1.26-.16Zm2.86,1.1v12.4h3c2,0,3-1,3-2.9a2.67,2.67,0,0,0-.88-2.14,3.68,3.68,0,0,0-2.5-.76h-1.38v-1.1h1.38A2.44,2.44,0,0,0,311.59,71a2.56,2.56,0,0,0-.79-2,3.25,3.25,0,0,0-2.31-.74Z"/><path d="M318.59,67V79.58c0,.73.29,1.1.86,1.1a4.16,4.16,0,0,0,.84-.12l.18,1.2a4.93,4.93,0,0,1-1.54.26c-1.28,0-1.92-.75-1.92-2.26V67.54l-1.2-.16v-1H318A.54.54,0,0,1,318.59,67Z"/><path d="M322.57,75.91a6.71,6.71,0,0,1,1.27-4.35,4.43,4.43,0,0,1,3.6-1.54,4.58,4.58,0,0,1,3.71,1.65,6.74,6.74,0,0,1,1.38,4.46,6.58,6.58,0,0,1-1.28,4.35A4.41,4.41,0,0,1,327.64,82a4.57,4.57,0,0,1-3.7-1.65A6.77,6.77,0,0,1,322.57,75.91Zm8.38.2a6,6,0,0,0-.94-3.56,3,3,0,0,0-2.54-1.31A2.87,2.87,0,0,0,325,72.46a5.9,5.9,0,0,0-.87,3.46,6,6,0,0,0,.95,3.56,3,3,0,0,0,2.53,1.32,2.85,2.85,0,0,0,2.46-1.22A5.83,5.83,0,0,0,331,76.11Z"/><path d="M339.71,70a5,5,0,0,1,1.66.28h3.16v1.1H343a4.42,4.42,0,0,1,.92,2.92,3.79,3.79,0,0,1-1.07,2.85,4.26,4.26,0,0,1-3.11,1,4.63,4.63,0,0,1-2.1-.46l-1.06,1.08a1.37,1.37,0,0,0-.46.94q0,.66.84.66h4.36a3.8,3.8,0,0,1,2.42.75,2.46,2.46,0,0,1,1,2,2.79,2.79,0,0,1-1.29,2.45,6.46,6.46,0,0,1-3.64.87,8.24,8.24,0,0,1-3.72-.71,2.37,2.37,0,0,1-1.37-2.25,3,3,0,0,1,.28-1.18,2.67,2.67,0,0,1,.74-1,1.37,1.37,0,0,1-1-1.36,3,3,0,0,1,1.08-2l1-.92a4.65,4.65,0,0,1-.09-6A4.23,4.23,0,0,1,339.71,70Zm1.48,11.62h-4.34a2.78,2.78,0,0,0-.72,1.81,1.6,1.6,0,0,0,1,1.46,5.52,5.52,0,0,0,2.54.51c2.38,0,3.56-.73,3.56-2.2a1.38,1.38,0,0,0-.54-1.18A2.41,2.41,0,0,0,341.19,81.64Zm1.22-7.46a3.17,3.17,0,0,0-.73-2.21,2.9,2.9,0,0,0-4,0,3.13,3.13,0,0,0-.7,2.17,3.18,3.18,0,0,0,.75,2.23,2.58,2.58,0,0,0,2,.82,2.47,2.47,0,0,0,2-.78A3.17,3.17,0,0,0,342.41,74.18Z"/><rect class="cls-1" x="182.35" y="73.16" width="25.95" height="4.72"/></g></g></svg>